<?xml version="1.0" encoding="utf-8"?>
<!-- Generator: Adobe Illustrator 21.0.0, SVG Export Plug-In . SVG Version: 6.00 Build 0)  -->
<svg version="1.1" id="Layer_1" xmlns="http://www.w3.org/2000/svg" xmlns:xlink="http://www.w3.org/1999/xlink" x="0px" y="0px"
	 viewBox="0 0 180 180" style="enable-background:new 0 0 180 180;" xml:space="preserve">
<style type="text/css">
	.st0{fill:#0558D2;}
	.st1{fill:#FCFCFC;}
	.st2{fill:#FAFAFA;}
</style>
<rect x="0" y="0" class="st0" width="180" height="180"/>
<g>
	<path class="st1" d="M104.7,101.6c11.8-20.4,23-39.9,34.3-59.3c0.8-1.5,1.7-2.9,2.8-4.2c1.4-1.7,3.3-1.9,5.1-0.8
		c1.8,1.1,2.6,2.8,1.9,4.9c-0.4,1.2-1.1,2.3-1.7,3.4c-12.2,21.1-24.4,42.3-36.6,63.4c-4.3,7.5-7,7.5-11.3,0.2
		c-5.9-10.2-11.8-20.4-17.7-30.6c-1.7-2.9-3.3-5.9,0.5-8.1c3.7-2.1,5.3,1,6.8,3.6C93.9,82.9,99,91.8,104.7,101.6z"/>
	<path class="st2" d="M79.3,109.6c0,2.5-0.9,4-3,4.6c-2.4,0.6-4.1-0.4-5.3-2.4c-3.1-5.3-6.1-10.6-9.1-15.8
		c-3.6-6.2-7.1-12.4-10.7-18.6c-1.4-2.5-1.7-4.8,0.9-6.6c2.8-1.9,4.8-0.5,6.3,1.9c6.8,11.6,13.5,23.3,20.2,34.9
		C79,108.3,79.2,109.1,79.3,109.6z"/>
	<g>
		<g>
			<path class="st1" d="M95.4,148.3c-41.2,4-74.8-34.9-61.4-77.2C40.3,51.4,57,36.7,77.2,32.7c16.5-3.3,32.4,0,45.5,9
				c1.8,1.2,2.1,3.8,0.8,5.5v0c-1.2,1.6-3.5,1.9-5.1,0.7c-8-5.5-17.3-8.5-27-8.9c-27.2-0.9-50.6,20.1-52.6,47.2
				c-2.2,30.8,23.2,56.4,53.9,54.5c26.6-1.6,47.7-23.9,47.9-50.5c0-5.5-0.8-10.8-2.4-16c-0.6-1.9,0.3-4,2.2-4.7l0,0
				c2-0.8,4.3,0.2,5,2.3c1.7,5.3,2.6,10.7,2.8,16.3C149,118.8,125.8,145.3,95.4,148.3z"/>
		</g>
	</g>
</g>
</svg>
